<svg width="47" height="62" viewBox="0 0 47 62" fill="none" xmlns="http://www.w3.org/2000/svg">
<path d="M9.29165 27.9589C8.64058 27.7991 8.15003 27.4753 7.8665 26.9103C7.69459 26.5593 7.61782 26.1742 7.64297 25.7889C7.65068 25.6451 7.71728 25.5095 7.82899 25.4104C7.9407 25.3112 8.08896 25.256 8.24304 25.2562C8.39997 25.2512 8.55274 25.3039 8.66857 25.4029C8.7844 25.502 8.85406 25.6395 8.86261 25.7861C8.87311 25.9164 8.87611 26.0482 8.90011 26.1772C8.92157 26.369 9.01972 26.5461 9.17491 26.6732C9.33011 26.8003 9.53092 26.8679 9.7372 26.8627C10.0562 26.8778 10.3719 26.7961 10.6373 26.63C10.738 26.5776 10.8252 26.5053 10.8927 26.418C10.9601 26.3307 11.0062 26.2306 11.0277 26.1248C11.0492 26.019 11.0455 25.9101 11.0169 25.8057C10.9883 25.7014 10.9355 25.6043 10.8623 25.5211C10.606 25.2148 10.2638 24.9809 9.87371 24.8454C9.57368 24.7221 9.27365 24.6057 8.98112 24.4852L8.92111 24.4585C8.19053 24.0716 7.59047 23.5796 7.67148 22.7147C7.75849 21.781 8.25204 21.0731 9.21364 20.7157C9.38916 20.6498 9.45667 20.5755 9.44017 20.4073C9.42776 20.2673 9.42776 20.1267 9.44017 19.9867C9.44236 19.8354 9.50878 19.6911 9.62483 19.5855C9.74088 19.48 9.89705 19.4218 10.059 19.4239C10.2209 19.4259 10.3753 19.488 10.4883 19.5964C10.6013 19.7049 10.6635 19.8508 10.6613 20.0021C10.671 20.1609 10.671 20.32 10.6613 20.4788C10.6613 20.5951 10.7018 20.6428 10.8188 20.6834C11.2667 20.8263 11.6539 21.0992 11.9238 21.4624C12.1937 21.8256 12.3322 22.26 12.319 22.702C12.319 23.0707 12.0699 23.3329 11.7189 23.3399C11.3679 23.3469 11.1188 23.0974 11.0963 22.7231C11.0678 22.0909 10.6673 21.7025 10.0462 21.7039C9.74794 21.7154 9.46493 21.8303 9.25245 22.0263C9.03997 22.2222 8.91328 22.4852 8.89711 22.7637C8.89051 22.8577 8.91268 22.9515 8.96103 23.0342C9.00938 23.1169 9.0819 23.185 9.17014 23.2305C9.47197 23.401 9.78629 23.5514 10.1107 23.6805C10.7333 23.9202 11.3109 24.2146 11.7534 24.6996C12.0662 25.0265 12.2492 25.4438 12.2719 25.8818C12.2946 26.3197 12.1555 26.7516 11.8779 27.1052C11.5914 27.4514 11.199 27.7081 10.7528 27.8411C10.5758 27.8958 10.5008 27.9701 10.5203 28.1453C10.533 28.2899 10.533 28.4353 10.5203 28.5799C10.5186 28.6544 10.5012 28.728 10.4692 28.7962C10.4371 28.8645 10.3909 28.9262 10.3333 28.9779C10.2757 29.0295 10.2078 29.07 10.1334 29.0971C10.0591 29.1241 9.97975 29.1373 9.89997 29.1357C9.82018 29.1342 9.74151 29.1179 9.66843 29.0879C9.59536 29.058 9.52932 29.0148 9.47409 28.961C9.41885 28.9072 9.37551 28.8437 9.34652 28.7742C9.31754 28.7048 9.30348 28.6306 9.30515 28.5561C9.28715 28.364 9.29165 28.172 9.29165 27.9589Z" fill="#F8CA00"/>
<path d="M19.3646 9.94512C18.9192 9.82267 18.5835 9.57455 18.3895 9.14168C18.2719 8.87273 18.2194 8.57761 18.2366 8.28238C18.2419 8.17219 18.2874 8.06835 18.3639 7.99236C18.4403 7.91638 18.5417 7.87407 18.6472 7.87421C18.7545 7.87039 18.8591 7.91076 18.9383 7.98667C19.0176 8.06258 19.0652 8.16797 19.0711 8.28023C19.0783 8.38012 19.0803 8.48109 19.0967 8.57991C19.1114 8.72686 19.1786 8.86259 19.2848 8.95998C19.3909 9.05736 19.5283 9.10921 19.6695 9.10516C19.8878 9.11672 20.1038 9.05418 20.2853 8.92685C20.3543 8.88676 20.4139 8.83131 20.4601 8.76442C20.5062 8.69753 20.5378 8.62083 20.5525 8.53977C20.5671 8.4587 20.5646 8.37525 20.5451 8.29531C20.5255 8.21538 20.4894 8.14092 20.4393 8.07722C20.2639 7.84251 20.0298 7.6633 19.7629 7.55949C19.5576 7.46497 19.3523 7.37581 19.1522 7.28344L19.1111 7.26303C18.6112 6.96657 18.2007 6.58956 18.2561 5.92682C18.3156 5.21145 18.6533 4.66902 19.3113 4.39512C19.4314 4.34464 19.4775 4.28771 19.4663 4.15881C19.4578 4.05158 19.4578 3.9438 19.4663 3.83657C19.4677 3.72063 19.5132 3.61006 19.5926 3.52918C19.672 3.4483 19.7789 3.40375 19.8897 3.40531C20.0004 3.40688 20.1061 3.45444 20.1834 3.53754C20.2607 3.62063 20.3033 3.73245 20.3018 3.84839C20.3084 3.97002 20.3084 4.09196 20.3018 4.21359C20.3018 4.30274 20.3295 4.33926 20.4095 4.37041C20.716 4.47986 20.9809 4.68903 21.1656 4.96733C21.3502 5.24563 21.445 5.57846 21.436 5.91715C21.436 6.19965 21.2656 6.40051 21.0254 6.40588C20.7852 6.41125 20.6148 6.22006 20.5994 5.93327C20.5799 5.44884 20.3059 5.1513 19.8809 5.15238C19.6768 5.16115 19.4832 5.24921 19.3378 5.39936C19.1924 5.54951 19.1057 5.75097 19.0947 5.96442C19.0902 6.03644 19.1053 6.10833 19.1384 6.17167C19.1715 6.23501 19.2211 6.28718 19.2815 6.3221C19.488 6.4527 19.7031 6.56792 19.9251 6.66689C20.351 6.85057 20.7462 7.07613 21.049 7.44778C21.263 7.69822 21.3882 8.01801 21.4037 8.35358C21.4193 8.68915 21.3241 9.0201 21.1342 9.29098C20.9381 9.55627 20.6697 9.75293 20.3644 9.85489C20.2433 9.89679 20.1919 9.95371 20.2053 10.088C20.214 10.1988 20.214 10.3102 20.2053 10.421C20.2041 10.4781 20.1922 10.5344 20.1703 10.5867C20.1483 10.6391 20.1168 10.6863 20.0774 10.7259C20.0379 10.7654 19.9915 10.7965 19.9406 10.8172C19.8897 10.838 19.8354 10.848 19.7809 10.8469C19.7263 10.8457 19.6724 10.8332 19.6224 10.8102C19.5724 10.7873 19.5273 10.7542 19.4895 10.713C19.4517 10.6717 19.422 10.6231 19.4022 10.5699C19.3823 10.5166 19.3727 10.4598 19.3739 10.4027C19.3616 10.2555 19.3646 10.1084 19.3646 9.94512Z" fill="#F8CA00"/>
<path d="M46.3354 42.0644V36.603C46.3354 34.7489 44.8694 33.248 43.0583 33.248H42.2576C41.1364 30.2461 39.2269 27.5216 36.6644 25.3144C36.6644 25.3018 36.6644 25.3018 36.652 25.2891C36.2701 23.9143 36.5535 22.4386 37.4898 20.9124C37.9949 20.0926 37.9826 19.0835 37.4775 18.2763C36.9724 17.4691 36.0853 17.0402 35.149 17.1538C31.5886 17.6078 29.4696 19.2727 28.2376 20.8115C27.0549 20.471 25.8229 20.2187 24.5909 20.0674C23.9749 19.9917 23.4205 20.4457 23.3466 21.0638C23.2727 21.6944 23.7162 22.262 24.3199 22.3377C25.6874 22.5017 27.0302 22.8044 28.3238 23.2206C28.792 23.372 29.3094 23.1954 29.5928 22.7665C30.4428 21.4674 32.1553 19.8277 35.4201 19.4241C35.4447 19.4241 35.5309 19.4115 35.5925 19.4998C35.6541 19.6007 35.6048 19.6637 35.5925 19.689C34.3236 21.7575 33.954 23.9143 34.5084 25.9072C34.5084 25.9198 34.5207 25.9324 34.5207 25.9576C34.533 26.2856 34.6809 26.6009 34.9396 26.8153C37.5514 28.9721 39.4486 31.7218 40.4096 34.7489C40.5574 35.2156 40.9886 35.5309 41.4691 35.5309C41.4814 35.5309 41.4814 35.5309 41.4937 35.5309H43.0583C43.6374 35.5309 44.1055 36.0102 44.1055 36.603V42.0644C44.1055 42.6573 43.6374 43.1365 43.0583 43.1365H41.5676C41.0748 43.1365 40.6437 43.4645 40.4958 43.9438C39.7936 46.2772 36.7506 50.1998 35.5679 51.6125L35.2969 51.8521C32.7959 54.1729 32.5372 56.91 32.5126 57.692C32.5126 57.7046 32.5126 57.7046 32.5126 57.7172V59.5208C32.5126 59.5461 32.4879 59.5713 32.4633 59.5713H25.3301C25.3055 59.5713 25.2808 59.5461 25.2808 59.5208V57.7929C25.2808 57.4649 25.1453 57.1622 24.9112 56.9478C24.6772 56.7334 24.3568 56.6325 24.0489 56.6577C22.2502 56.8469 20.4268 56.8217 18.6651 56.582C18.3448 56.5442 18.0245 56.6325 17.7781 56.8595C17.5317 57.0739 17.3961 57.3892 17.3961 57.7172V59.5208C17.3961 59.5461 17.3715 59.5713 17.3469 59.5713H10.2137C10.189 59.5713 10.1644 59.5461 10.1644 59.5208V58.9659C10.1644 58.9533 10.1644 58.928 10.1644 58.9154C10.1028 57.6037 9.69626 54.2738 7.17069 51.6125C5.95103 50.326 4.85457 48.6358 3.93058 46.5799C3.91826 46.5673 3.91826 46.5547 3.90594 46.5421C3.35155 45.4447 2.93267 44.2843 2.64932 43.1113C2.64932 43.0987 2.64932 43.0861 2.637 43.0861L2.62468 43.0483C2.62468 43.0356 2.61236 43.023 2.61236 43.0104C2.16884 41.4842 2.21812 39.5671 2.21812 39.5418C2.21812 39.5292 2.21812 39.5166 2.21812 39.504C2.21812 38.6589 2.29204 37.8139 2.42756 36.994C2.52612 36.376 2.11956 35.7832 1.51589 35.6823C0.912221 35.5814 0.33319 35.9976 0.234631 36.6156C0.0744733 37.5616 0.000554162 38.5202 0.000554162 39.4914C0.000554162 39.731 -0.0364054 41.8374 0.493347 43.6537L0.505667 43.6789C0.825983 45.0285 1.30646 46.3403 1.93477 47.5889C2.96963 49.8719 4.20161 51.7765 5.59375 53.2396C7.57725 55.3333 7.90988 57.9694 7.95916 59.0289V59.5461C7.95916 59.5839 7.95916 59.6344 7.95916 59.6722C7.95916 59.6848 7.95916 59.6974 7.95916 59.71C8.0454 60.9335 9.0433 61.8921 10.2383 61.8921H17.3715C18.6281 61.8921 19.663 60.8452 19.663 59.5461V59.0163C20.7964 59.1172 21.9422 59.1298 23.0879 59.0668V59.5461C23.0879 60.8326 24.1105 61.8921 25.3794 61.8921H32.5126C33.7692 61.8921 34.8041 60.8452 34.8041 59.5461V57.755C34.8164 57.3262 34.9765 55.3081 36.8368 53.5801L37.1571 53.3026C37.1941 53.2648 37.2311 53.227 37.268 53.1891C37.4405 52.9873 41.0625 48.7115 42.4054 45.4447H43.1199C44.8694 45.4195 46.3354 43.9059 46.3354 42.0644Z" fill="#008A5C"/>
<path d="M0 24.2803C0 29.8931 4.45977 34.4464 9.92978 34.4464C15.3998 34.4464 19.8596 29.8805 19.8596 24.2803C19.8596 18.6802 15.3998 14.1143 9.92978 14.1143C4.45977 14.1143 0 18.6802 0 24.2803ZM17.6297 24.2803C17.6297 28.6318 14.1801 32.1635 9.92978 32.1635C5.67944 32.1635 2.22989 28.6318 2.22989 24.2803C2.22989 19.9289 5.67944 16.3972 9.92978 16.3972C14.1801 16.3972 17.6297 19.9415 17.6297 24.2803Z" fill="#F8CA00"/>
<path d="M12.9358 7.06328C12.9358 10.9607 16.0281 14.1266 19.8349 14.1266C23.6417 14.1266 26.734 10.9607 26.734 7.06328C26.734 3.16586 23.6417 0 19.8349 0C16.0281 0 12.9358 3.16586 12.9358 7.06328ZM24.4918 7.06328C24.4918 9.6994 22.3974 11.8436 19.8226 11.8436C17.2477 11.8436 15.1534 9.6994 15.1534 7.06328C15.1534 4.42717 17.2477 2.28295 19.8226 2.28295C22.3974 2.28295 24.4918 4.42717 24.4918 7.06328Z" fill="#F8CA00"/>
</svg>
