<svg width="47" height="45" viewBox="0 0 47 45" fill="none" xmlns="http://www.w3.org/2000/svg">
<ellipse cx="23.349" cy="22.5" rx="22.849" ry="22.5" fill="#BD1550"/>
<path d="M14.4634 10.8333H12.9824C12.1969 10.8333 11.4435 11.1406 10.888 11.6876C10.3326 12.2346 10.0205 12.9765 10.0205 13.75V18.8542C10.0205 20.9814 10.8787 23.0216 12.4062 24.5258C13.9337 26.03 16.0055 26.875 18.1658 26.875C20.326 26.875 22.3978 26.03 23.9253 24.5258C25.4528 23.0216 26.311 20.9814 26.311 18.8542V13.75C26.311 12.9765 25.9989 12.2346 25.4435 11.6876C24.888 11.1406 24.1346 10.8333 23.3491 10.8333H21.8681M17.4253 26.875C17.4253 28.0241 17.6551 29.1619 18.1017 30.2235C18.5482 31.2851 19.2027 32.2497 20.0278 33.0622C20.853 33.8747 21.8325 34.5192 22.9106 34.9589C23.9886 35.3987 25.1441 35.625 26.311 35.625C27.4779 35.625 28.6334 35.3987 29.7114 34.9589C30.7895 34.5192 31.769 33.8747 32.5942 33.0622C33.4193 32.2497 34.0738 31.2851 34.5203 30.2235C34.9669 29.1619 35.1967 28.0241 35.1967 26.875V22.5M35.1967 22.5C36.8325 22.5 38.1586 21.1942 38.1586 19.5833C38.1586 17.9725 36.8325 16.6667 35.1967 16.6667C33.5609 16.6667 32.2348 17.9725 32.2348 19.5833C32.2348 21.1942 33.5609 22.5 35.1967 22.5ZM21.8681 9.375V12.2917M14.4634 9.375V12.2917" stroke="white" stroke-width="2" stroke-linecap="round" stroke-linejoin="round"/>
</svg>
