<svg width="168" height="218" viewBox="0 0 168 218" fill="none" xmlns="http://www.w3.org/2000/svg">
<path d="M33.5063 98.4792C31.1585 97.9163 29.3895 96.7757 28.3671 94.7859C27.7471 93.5496 27.4703 92.1929 27.561 90.8358C27.5888 90.3293 27.829 89.852 28.2318 89.5027C28.6347 89.1534 29.1693 88.9589 29.7249 88.9595C30.2908 88.942 30.8417 89.1276 31.2594 89.4765C31.6771 89.8254 31.9283 90.3099 31.9591 90.8259C31.997 91.2851 32.0078 91.7493 32.0944 92.2035C32.1718 92.879 32.5257 93.503 33.0853 93.9506C33.645 94.3983 34.3691 94.6366 35.113 94.618C36.2634 94.6712 37.4019 94.3837 38.3588 93.7984C38.722 93.6141 39.0364 93.3592 39.2797 93.0517C39.523 92.7442 39.6892 92.3917 39.7666 92.019C39.8441 91.6464 39.8308 91.2627 39.7277 90.8953C39.6246 90.5279 39.4343 90.1856 39.1702 89.8927C38.2459 88.8138 37.0118 87.99 35.6053 87.5128C34.5233 87.0783 33.4414 86.6685 32.3865 86.2439L32.1701 86.15C29.5356 84.7873 27.3717 83.0542 27.6638 80.0077C27.9776 76.7192 29.7574 74.2258 33.225 72.9667C33.8579 72.7346 34.1014 72.4729 34.0419 71.8804C33.9971 71.3875 33.9971 70.892 34.0419 70.3991C34.0497 69.8662 34.2893 69.3579 34.7078 68.9861C35.1263 68.6143 35.6894 68.4095 36.2734 68.4167C36.8573 68.4239 37.4142 68.6425 37.8215 69.0245C38.2288 69.4065 38.4532 69.9205 38.4453 70.4534C38.4805 71.0126 38.4805 71.5731 38.4453 72.1322C38.4453 72.542 38.5914 72.7099 39.0134 72.8531C40.6283 73.3562 42.0246 74.3177 42.9979 75.597C43.9713 76.8763 44.4707 78.4063 44.4231 79.9632C44.4231 81.2618 43.5251 82.1852 42.2592 82.2098C40.9933 82.2345 40.0953 81.3556 40.0142 80.0373C39.9114 77.8105 38.467 76.4427 36.2274 76.4477C35.1517 76.488 34.1312 76.8928 33.3649 77.583C32.5987 78.2732 32.1418 79.1993 32.0835 80.1805C32.0597 80.5116 32.1397 80.842 32.314 81.1332C32.4884 81.4244 32.7499 81.6642 33.0681 81.8247C34.1565 82.4251 35.29 82.9547 36.46 83.4097C38.705 84.254 40.7877 85.2909 42.3836 86.9993C43.5114 88.1505 44.1715 89.6206 44.2533 91.1631C44.335 92.7057 43.8335 94.227 42.8326 95.4722C41.7994 96.6917 40.3844 97.5957 38.7753 98.0645C38.137 98.257 37.8665 98.5187 37.9368 99.1359C37.9828 99.6453 37.9828 100.157 37.9368 100.667C37.9308 100.929 37.8682 101.188 37.7525 101.429C37.6368 101.669 37.4703 101.886 37.2626 102.068C37.0549 102.25 36.81 102.393 36.5419 102.488C36.2737 102.584 35.9876 102.63 35.6999 102.624C35.4122 102.619 35.1285 102.562 34.865 102.456C34.6015 102.35 34.3633 102.199 34.1642 102.009C33.965 101.819 33.8087 101.596 33.7042 101.351C33.5996 101.106 33.5489 100.845 33.555 100.583C33.4901 99.9062 33.5063 99.2297 33.5063 98.4792Z" fill="#F8CA00"/>
<path d="M69.8303 35.0302C68.2239 34.5989 67.0136 33.7249 66.314 32.2002C65.8898 31.2529 65.7004 30.2134 65.7625 29.1736C65.7815 28.7854 65.9458 28.4197 66.2215 28.1521C66.4971 27.8844 66.8629 27.7354 67.243 27.7359C67.6302 27.7224 68.0072 27.8646 68.293 28.132C68.5788 28.3994 68.7506 28.7706 68.7717 29.166C68.7976 29.5178 68.805 29.8735 68.8643 30.2215C68.9172 30.7391 69.1594 31.2172 69.5423 31.5602C69.9252 31.9032 70.4207 32.0859 70.9296 32.0716C71.7168 32.1123 72.4957 31.8921 73.1504 31.4436C73.399 31.3024 73.6141 31.107 73.7805 30.8714C73.947 30.6358 74.0607 30.3657 74.1137 30.0802C74.1667 29.7946 74.1576 29.5007 74.0871 29.2191C74.0166 28.9376 73.8863 28.6753 73.7056 28.4509C73.0732 27.6242 72.2288 26.993 71.2664 26.6274C70.5262 26.2944 69.7859 25.9804 69.0641 25.655L68.9161 25.5832C67.1135 24.5389 65.6329 23.211 65.8328 20.8767C66.0475 18.357 67.2653 16.4464 69.6378 15.4816C70.0709 15.3038 70.2375 15.1033 70.1967 14.6493C70.1661 14.2716 70.1661 13.892 70.1967 13.5143C70.2021 13.1059 70.366 12.7164 70.6524 12.4315C70.9387 12.1467 71.324 11.9897 71.7236 11.9953C72.1231 12.0008 72.5041 12.1683 72.7828 12.461C73.0615 12.7537 73.2151 13.1475 73.2097 13.5559C73.2337 13.9843 73.2337 14.4138 73.2097 14.8422C73.2097 15.1562 73.3096 15.2849 73.5983 15.3946C74.7033 15.7801 75.6586 16.5168 76.3246 17.4971C76.9906 18.4773 77.3323 19.6497 77.2997 20.8426C77.2997 21.8376 76.6853 22.5451 75.8191 22.564C74.953 22.583 74.3386 21.9095 74.2831 20.8994C74.2127 19.1931 73.2245 18.1451 71.6921 18.1489C70.9561 18.1798 70.2578 18.4899 69.7336 19.0188C69.2093 19.5477 68.8967 20.2573 68.8569 21.0091C68.8406 21.2628 68.8953 21.516 69.0146 21.7391C69.1339 21.9622 69.3128 22.146 69.5305 22.2689C70.2752 22.729 71.0507 23.1348 71.8513 23.4834C73.3873 24.1304 74.8124 24.9249 75.9043 26.2339C76.6759 27.116 77.1276 28.2424 77.1835 29.4244C77.2394 30.6063 76.8963 31.772 76.2115 32.7261C75.5045 33.6605 74.5364 34.3532 73.4355 34.7124C72.9987 34.8599 72.8136 35.0604 72.8617 35.5334C72.8932 35.9236 72.8932 36.3159 72.8617 36.7062C72.8576 36.9074 72.8147 37.1058 72.7356 37.2901C72.6564 37.4744 72.5425 37.641 72.4004 37.7803C72.2583 37.9195 72.0907 38.0289 71.9073 38.102C71.7238 38.1751 71.5281 38.2105 71.3312 38.2063C71.1344 38.2021 70.9402 38.1583 70.76 38.0774C70.5797 37.9965 70.4167 37.88 70.2804 37.7348C70.1442 37.5895 70.0372 37.4182 69.9657 37.2307C69.8942 37.0432 69.8595 36.8431 69.8636 36.6419C69.8192 36.1236 69.8303 35.6052 69.8303 35.0302Z" fill="#F8CA00"/>
<path d="M167.089 148.162V128.925C167.089 122.395 161.803 117.108 155.272 117.108H152.384C148.341 106.534 141.455 96.9383 132.215 89.1637C132.215 89.1193 132.215 89.1193 132.17 89.0749C130.793 84.2324 131.815 79.0345 135.191 73.6589C137.013 70.7712 136.968 67.2171 135.147 64.3738C133.325 61.5305 130.127 60.0201 126.75 60.4199C113.911 62.0192 106.27 67.8835 101.827 73.3035C97.5622 72.104 93.1196 71.2155 88.6769 70.6824C86.4556 70.4158 84.4564 72.0152 84.1899 74.192C83.9233 76.4134 85.5227 78.4125 87.6995 78.6791C92.6309 79.2566 97.4733 80.3229 102.138 81.7889C103.826 82.3221 105.692 81.7001 106.714 80.1896C109.779 75.6137 115.955 69.8383 127.728 68.4166C127.817 68.4166 128.128 68.3722 128.35 68.6832C128.572 69.0386 128.394 69.2607 128.35 69.3496C123.774 76.6355 122.441 84.2324 124.44 91.2517C124.44 91.2962 124.485 91.3406 124.485 91.4295C124.529 92.5845 125.062 93.6952 125.995 94.4505C135.413 102.047 142.255 111.732 145.72 122.395C146.253 124.038 147.808 125.149 149.541 125.149C149.585 125.149 149.585 125.149 149.63 125.149H155.272C157.36 125.149 159.048 126.837 159.048 128.925V148.162C159.048 150.25 157.36 151.938 155.272 151.938H149.896C148.119 151.938 146.564 153.093 146.031 154.781C143.499 163 132.526 176.817 128.261 181.793L127.283 182.637C118.265 190.811 117.332 200.452 117.243 203.206C117.243 203.25 117.243 203.25 117.243 203.295V209.648C117.243 209.737 117.154 209.826 117.065 209.826H91.3425C91.2537 209.826 91.1648 209.737 91.1648 209.648V203.561C91.1648 202.406 90.6761 201.34 89.832 200.585C88.9879 199.83 87.8328 199.474 86.7222 199.563C80.2359 200.23 73.6608 200.141 67.3079 199.297C66.1528 199.163 64.9977 199.474 64.1092 200.274C63.2206 201.029 62.732 202.14 62.732 203.295V209.648C62.732 209.737 62.6431 209.826 62.5543 209.826H36.8314C36.7426 209.826 36.6537 209.737 36.6537 209.648V207.693C36.6537 207.649 36.6537 207.56 36.6537 207.515C36.4316 202.895 34.9655 191.167 25.8581 181.793C21.4599 177.261 17.506 171.308 14.174 164.066C14.1296 164.022 14.1296 163.978 14.0851 163.933C12.086 160.068 10.5755 155.981 9.55366 151.849C9.55366 151.805 9.55366 151.76 9.50923 151.76L9.4648 151.627C9.4648 151.583 9.42038 151.538 9.42038 151.494C7.82103 146.118 7.99874 139.365 7.99874 139.277C7.99874 139.232 7.99874 139.188 7.99874 139.143C7.99874 136.167 8.26529 133.19 8.75398 130.302C9.10939 128.126 7.64332 126.038 5.46643 125.682C3.28955 125.327 1.20151 126.793 0.846099 128.97C0.268557 132.302 0.00199835 135.678 0.00199835 139.099C0.00199835 139.943 -0.131281 147.362 1.77905 153.76L1.82348 153.848C2.97856 158.602 4.71119 163.222 6.97693 167.621C10.7087 175.662 15.1514 182.37 20.1715 187.524C27.3242 194.898 28.5237 204.183 28.7014 207.915V209.737C28.7014 209.87 28.7014 210.048 28.7014 210.181C28.7014 210.225 28.7014 210.27 28.7014 210.314C29.0124 214.624 32.6109 218 36.9203 218H62.6431C67.1746 218 70.9064 214.313 70.9064 209.737V207.871C74.9936 208.226 79.1253 208.271 83.2569 208.049V209.737C83.2569 214.268 86.9443 218 91.5202 218H117.243C121.775 218 125.506 214.313 125.506 209.737V203.428C125.551 201.918 126.128 194.809 132.837 188.723L133.992 187.746C134.125 187.612 134.258 187.479 134.392 187.346C135.014 186.635 148.075 171.575 152.917 160.068H155.494C161.803 159.979 167.089 154.648 167.089 148.162Z" fill="#008A5C"/>
<path d="M0 85.5206C0 105.29 16.0823 121.328 35.8076 121.328C55.5329 121.328 71.6152 105.246 71.6152 85.5206C71.6152 65.7953 55.5329 49.713 35.8076 49.713C16.0823 49.713 0 65.7953 0 85.5206ZM63.5741 85.5206C63.5741 100.848 51.1347 113.287 35.8076 113.287C20.4805 113.287 8.04116 100.848 8.04116 85.5206C8.04116 70.1935 20.4805 57.7542 35.8076 57.7542C51.1347 57.7542 63.5741 70.238 63.5741 85.5206Z" fill="#F8CA00"/>
<path d="M46.6477 24.8787C46.6477 38.6065 57.7987 49.7575 71.5264 49.7575C85.2542 49.7575 96.4052 38.6065 96.4052 24.8787C96.4052 11.151 85.2542 0 71.5264 0C57.7987 0 46.6477 11.151 46.6477 24.8787ZM88.3196 24.8787C88.3196 34.1638 80.7671 41.7163 71.482 41.7163C62.1969 41.7163 54.6444 34.1638 54.6444 24.8787C54.6444 15.5936 62.1969 8.04116 71.482 8.04116C80.7671 8.04116 88.3196 15.5936 88.3196 24.8787Z" fill="#F8CA00"/>
</svg>
