<svg width="47" height="45" viewBox="0 0 47 45" fill="none" xmlns="http://www.w3.org/2000/svg">
<ellipse cx="23.349" cy="22.5" rx="22.849" ry="22.5" fill="#00D68F"/>
<path d="M36.6777 13.75C36.6777 16.1662 33.3624 18.125 29.2729 18.125C25.1834 18.125 21.8681 16.1662 21.8681 13.75M36.6777 13.75C36.6777 11.3338 33.3624 9.375 29.2729 9.375C25.1834 9.375 21.8681 11.3338 21.8681 13.75M36.6777 13.75V19.5833M21.8681 13.75V19.5833M21.8681 19.5833C21.8681 21.9998 25.184 23.9583 29.2729 23.9583C33.3618 23.9583 36.6777 21.9998 36.6777 19.5833M21.8681 19.5833V25.4167M36.6777 19.5833V25.4167M21.8681 25.4167C21.8681 27.8331 25.184 29.7917 29.2729 29.7917C33.3618 29.7917 36.6777 27.8331 36.6777 25.4167M21.8681 25.4167V31.25C21.8681 33.6665 25.184 35.625 29.2729 35.625C33.3618 35.625 36.6777 33.6665 36.6777 31.25V25.4167M15.9443 18.125H12.2419C11.6528 18.125 11.0877 18.3555 10.6711 18.7657C10.2546 19.1759 10.0205 19.7323 10.0205 20.3125C10.0205 20.8927 10.2546 21.4491 10.6711 21.8593C11.0877 22.2695 11.6528 22.5 12.2419 22.5H13.7229C14.3121 22.5 14.8771 22.7305 15.2937 23.1407C15.7103 23.5509 15.9443 24.1073 15.9443 24.6875C15.9443 25.2677 15.7103 25.8241 15.2937 26.2343C14.8771 26.6445 14.3121 26.875 13.7229 26.875H10.0205M12.9824 26.875V28.3333M12.9824 16.6667V18.125" stroke="white" stroke-width="2" stroke-linecap="round" stroke-linejoin="round"/>
</svg>
