<svg width="47" height="45" viewBox="0 0 47 45" fill="none" xmlns="http://www.w3.org/2000/svg">
<ellipse cx="23.349" cy="22.5" rx="22.849" ry="22.5" fill="#E97F02"/>
<path d="M17.4253 29.7915C17.4253 31.4023 16.0992 32.7082 14.4634 32.7082C12.8275 32.7082 11.5015 31.4023 11.5015 29.7915M17.4253 29.7915C17.4253 28.1807 16.0992 26.8748 14.4634 26.8748C12.8275 26.8748 11.5015 28.1807 11.5015 29.7915M17.4253 29.7915H29.2729M11.5015 29.7915H8.53955V13.7498C8.53955 13.3631 8.69558 12.9921 8.97331 12.7186C9.25104 12.4451 9.62773 12.2915 10.0205 12.2915H30.7539C32.7177 12.2915 34.6012 13.367 35.9898 15.2815C37.3785 17.1959 38.1586 19.7924 38.1586 22.4998M35.1967 29.7915C35.1967 31.4023 33.8706 32.7082 32.2348 32.7082C30.599 32.7082 29.2729 31.4023 29.2729 29.7915M35.1967 29.7915C35.1967 28.1807 33.8706 26.8748 32.2348 26.8748C30.599 26.8748 29.2729 28.1807 29.2729 29.7915M35.1967 29.7915H38.1586V22.4998M38.1586 22.4998H31.4943L29.2729 12.2915M8.53955 19.5832H30.7539M15.9443 12.2915V19.5832M23.3491 12.2915V19.5832" stroke="white" stroke-width="2" stroke-linecap="round" stroke-linejoin="round"/>
</svg>
