<svg width="56" height="74" viewBox="0 0 56 74" fill="none" xmlns="http://www.w3.org/2000/svg">
<path d="M11.1095 33.4284C10.331 33.2373 9.74452 32.8502 9.40552 32.1747C9.19998 31.755 9.1082 31.2945 9.13827 30.8339C9.14748 30.6619 9.22712 30.4999 9.36068 30.3813C9.49424 30.2627 9.6715 30.1967 9.85573 30.1969C10.0434 30.191 10.226 30.254 10.3645 30.3724C10.503 30.4909 10.5863 30.6553 10.5965 30.8305C10.6091 30.9864 10.6126 31.1439 10.6413 31.2981C10.667 31.5274 10.7843 31.7392 10.9699 31.8912C11.1555 32.0431 11.3956 32.124 11.6422 32.1177C12.0236 32.1358 12.4011 32.0382 12.7184 31.8395C12.8388 31.7769 12.943 31.6904 13.0237 31.586C13.1044 31.4817 13.1595 31.362 13.1852 31.2355C13.2108 31.109 13.2064 30.9788 13.1722 30.854C13.1381 30.7293 13.075 30.6131 12.9874 30.5137C12.6809 30.1475 12.2718 29.8678 11.8054 29.7059C11.4467 29.5584 11.088 29.4193 10.7382 29.2751L10.6664 29.2433C9.79295 28.7807 9.0755 28.1924 9.17235 27.1583C9.27638 26.042 9.86649 25.1956 11.0162 24.7682C11.2261 24.6894 11.3068 24.6006 11.287 24.3995C11.2722 24.2321 11.2722 24.064 11.287 23.8966C11.2897 23.7157 11.3691 23.5432 11.5078 23.417C11.6466 23.2908 11.8333 23.2213 12.0269 23.2237C12.2205 23.2261 12.4052 23.3004 12.5402 23.43C12.6753 23.5597 12.7497 23.7342 12.7471 23.9151C12.7587 24.1049 12.7587 24.2951 12.7471 24.4849C12.7471 24.624 12.7955 24.681 12.9354 24.7296C13.4709 24.9004 13.9338 25.2268 14.2565 25.6611C14.5792 26.0953 14.7448 26.6147 14.729 27.1432C14.729 27.584 14.4313 27.8974 14.0116 27.9058C13.5919 27.9142 13.2941 27.6158 13.2672 27.1683C13.2331 26.4124 12.7542 25.9481 12.0117 25.9498C11.655 25.9635 11.3167 26.1009 11.0626 26.3352C10.8086 26.5695 10.6571 26.8839 10.6378 27.2169C10.6299 27.3293 10.6564 27.4415 10.7142 27.5403C10.772 27.6391 10.8587 27.7206 10.9642 27.775C11.3251 27.9788 11.7009 28.1586 12.0888 28.3131C12.8332 28.5997 13.5237 28.9516 14.0528 29.5316C14.4268 29.9223 14.6456 30.4213 14.6727 30.945C14.6998 31.4686 14.5335 31.985 14.2017 32.4077C13.8591 32.8216 13.39 33.1285 12.8565 33.2876C12.6448 33.353 12.5551 33.4418 12.5785 33.6513C12.5937 33.8242 12.5937 33.998 12.5785 34.1709C12.5765 34.26 12.5557 34.3479 12.5173 34.4296C12.479 34.5112 12.4238 34.585 12.3549 34.6467C12.2861 34.7084 12.2048 34.7568 12.1159 34.7892C12.027 34.8216 11.9322 34.8373 11.8368 34.8355C11.7414 34.8336 11.6473 34.8142 11.56 34.7783C11.4726 34.7425 11.3936 34.6909 11.3276 34.6266C11.2616 34.5622 11.2097 34.4863 11.1751 34.4033C11.1404 34.3202 11.1236 34.2315 11.1256 34.1424C11.1041 33.9128 11.1095 33.6832 11.1095 33.4284Z" fill="white"/>
<path d="M23.153 11.8915C22.6203 11.7451 22.219 11.4484 21.9871 10.9309C21.8465 10.6093 21.7837 10.2565 21.8042 9.90347C21.8105 9.77173 21.865 9.64758 21.9564 9.55672C22.0478 9.46587 22.1691 9.41529 22.2951 9.41546C22.4235 9.41089 22.5485 9.45916 22.6432 9.54992C22.738 9.64067 22.795 9.76668 22.802 9.9009C22.8106 10.0203 22.813 10.1411 22.8326 10.2592C22.8502 10.4349 22.9305 10.5972 23.0575 10.7136C23.1844 10.8301 23.3487 10.8921 23.5174 10.8872C23.7784 10.901 24.0367 10.8263 24.2538 10.674C24.3362 10.6261 24.4075 10.5598 24.4627 10.4798C24.5179 10.3998 24.5556 10.3081 24.5732 10.2112C24.5907 10.1143 24.5877 10.0145 24.5643 9.91894C24.5409 9.82337 24.4978 9.73435 24.4379 9.65818C24.2282 9.37756 23.9482 9.16328 23.6291 9.03917C23.3837 8.92616 23.1382 8.81956 22.8989 8.70912L22.8498 8.68471C22.2522 8.33026 21.7613 7.87949 21.8276 7.0871C21.8987 6.23179 22.3025 5.58324 23.0891 5.25575C23.2327 5.19539 23.2879 5.12733 23.2745 4.97322C23.2643 4.84501 23.2643 4.71615 23.2745 4.58794C23.2762 4.44932 23.3306 4.31711 23.4255 4.22041C23.5205 4.12371 23.6482 4.07044 23.7807 4.07231C23.9132 4.07419 24.0395 4.13105 24.1319 4.2304C24.2243 4.32975 24.2752 4.46344 24.2734 4.60207C24.2814 4.7475 24.2814 4.89329 24.2734 5.03871C24.2734 5.14531 24.3065 5.18897 24.4023 5.22622C24.7686 5.35707 25.0854 5.60716 25.3062 5.93991C25.527 6.27265 25.6403 6.67059 25.6295 7.07554C25.6295 7.4133 25.4258 7.65346 25.1386 7.65988C24.8514 7.6663 24.6477 7.4377 24.6293 7.09481C24.606 6.51561 24.2783 6.15987 23.7702 6.16115C23.5262 6.17164 23.2947 6.27693 23.1209 6.45645C22.9471 6.63598 22.8434 6.87685 22.8302 7.13205C22.8248 7.21817 22.8429 7.30412 22.8825 7.37985C22.922 7.45558 22.9814 7.51796 23.0535 7.55971C23.3005 7.71586 23.5576 7.85362 23.823 7.97195C24.3323 8.19156 24.8048 8.46125 25.1668 8.90561C25.4227 9.20504 25.5724 9.58739 25.591 9.98861C25.6095 10.3898 25.4957 10.7855 25.2687 11.1094C25.0343 11.4266 24.7133 11.6617 24.3483 11.7836C24.2035 11.8337 24.1421 11.9018 24.158 12.0623C24.1685 12.1948 24.1685 12.3279 24.158 12.4604C24.1567 12.5287 24.1425 12.5961 24.1162 12.6586C24.09 12.7212 24.0522 12.7777 24.0051 12.825C23.958 12.8723 23.9024 12.9094 23.8416 12.9342C23.7808 12.959 23.7159 12.9711 23.6506 12.9696C23.5853 12.9682 23.521 12.9533 23.4612 12.9259C23.4014 12.8984 23.3474 12.8589 23.3022 12.8096C23.257 12.7603 23.2216 12.7021 23.1978 12.6385C23.1741 12.5748 23.1626 12.5069 23.164 12.4386C23.1493 12.2627 23.153 12.0867 23.153 11.8915Z" fill="white"/>
<path d="M55.4002 50.2938V43.7639C55.4002 41.5471 53.6473 39.7525 51.482 39.7525H50.5246C49.1842 36.1634 46.901 32.906 43.8372 30.2669C43.8372 30.2518 43.8372 30.2518 43.8225 30.2367C43.3658 28.593 43.7046 26.8285 44.8241 25.0038C45.428 24.0236 45.4133 22.8171 44.8094 21.852C44.2054 20.8868 43.1449 20.3741 42.0254 20.5098C37.7685 21.0527 35.2349 23.0433 33.7619 24.8832C32.3478 24.476 30.8748 24.1744 29.4018 23.9934C28.6653 23.9029 28.0025 24.4458 27.9141 25.1848C27.8257 25.9388 28.356 26.6174 29.0778 26.7079C30.7128 26.9039 32.3184 27.2659 33.865 27.7635C34.4248 27.9445 35.0434 27.7334 35.3822 27.2206C36.3986 25.6673 38.446 23.7069 42.3495 23.2243C42.3789 23.2243 42.482 23.2092 42.5557 23.3148C42.6293 23.4354 42.5704 23.5108 42.5557 23.541C41.0385 26.0142 40.5966 28.593 41.2595 30.9757C41.2595 30.9908 41.2742 31.0058 41.2742 31.036C41.2889 31.4281 41.4657 31.8051 41.775 32.0615C44.8977 34.6402 47.1662 37.9278 48.3151 41.5471C48.4919 42.1051 49.0074 42.4821 49.5819 42.4821C49.5966 42.4821 49.5966 42.4821 49.6113 42.4821H51.482C52.1743 42.4821 52.7341 43.0551 52.7341 43.7639V50.2938C52.7341 51.0025 52.1743 51.5756 51.482 51.5756H49.6997C49.1105 51.5756 48.595 51.9677 48.4182 52.5408C47.5786 55.3306 43.9403 60.0207 42.5262 61.7097L42.2022 61.9962C39.212 64.771 38.9027 68.0435 38.8732 68.9785C38.8732 68.9936 38.8732 68.9936 38.8732 69.0086V71.1651C38.8732 71.1953 38.8437 71.2255 38.8143 71.2255H30.2856C30.2562 71.2255 30.2267 71.1953 30.2267 71.1651V69.0991C30.2267 68.707 30.0647 68.3451 29.7848 68.0887C29.505 67.8324 29.122 67.7117 28.7537 67.7419C26.6032 67.9681 24.4231 67.9379 22.3167 67.6514C21.9338 67.6062 21.5508 67.7117 21.2562 67.9832C20.9616 68.2395 20.7996 68.6165 20.7996 69.0086V71.1651C20.7996 71.1953 20.7701 71.2255 20.7406 71.2255H12.212C12.1825 71.2255 12.1531 71.1953 12.1531 71.1651V70.5016C12.1531 70.4865 12.1531 70.4564 12.1531 70.4413C12.0794 68.8729 11.5933 64.8917 8.5737 61.7097C7.11544 60.1715 5.80447 58.1507 4.69973 55.6926C4.685 55.6775 4.685 55.6624 4.67027 55.6473C4.00742 54.3353 3.5066 52.9479 3.16781 51.5454C3.16781 51.5304 3.16781 51.5153 3.15308 51.5153L3.13835 51.47C3.13835 51.455 3.12362 51.4399 3.12362 51.4248C2.59335 49.6001 2.65227 47.3078 2.65227 47.2777C2.65227 47.2626 2.65227 47.2475 2.65227 47.2324C2.65227 46.222 2.74065 45.2116 2.90268 44.2314C3.02051 43.4925 2.53443 42.7837 1.81266 42.663C1.09089 42.5424 0.398585 43.0401 0.280745 43.779C0.0892561 44.91 0.000876196 46.0562 0.000876196 47.2173C0.000876196 47.5039 -0.0433137 50.0223 0.590074 52.1939L0.604804 52.2241C0.987783 53.8377 1.56225 55.406 2.31348 56.899C3.55079 59.6286 5.02379 61.9057 6.68827 63.6551C9.05979 66.1584 9.4575 69.3102 9.51642 70.577V71.1953C9.51642 71.2406 9.51642 71.3009 9.51642 71.3461C9.51642 71.3612 9.51642 71.3763 9.51642 71.3914C9.61953 72.8542 10.8127 74.0003 12.2415 74.0003H20.7701C22.2726 74.0003 23.5099 72.7486 23.5099 71.1953V70.5619C24.865 70.6826 26.2349 70.6977 27.6048 70.6222V71.1953C27.6048 72.7335 28.8274 74.0003 30.3446 74.0003H38.8732C40.3757 74.0003 41.613 72.7486 41.613 71.1953V69.0539C41.6277 68.5411 41.8192 66.1283 44.0434 64.0622L44.4264 63.7305C44.4706 63.6852 44.5148 63.64 44.559 63.5947C44.7652 63.3535 49.0958 58.2412 50.7013 54.3353H51.5557C53.6473 54.3052 55.4002 52.4955 55.4002 50.2938Z" fill="white"/>
<path d="M0.000213623 29.0299C0.000213623 35.7407 5.33245 41.1847 11.8725 41.1847C18.4126 41.1847 23.7449 35.7256 23.7449 29.0299C23.7449 22.3341 18.4126 16.875 11.8725 16.875C5.33245 16.875 0.000213623 22.3341 0.000213623 29.0299ZM21.0788 29.0299C21.0788 34.2326 16.9544 38.4552 11.8725 38.4552C6.79072 38.4552 2.66633 34.2326 2.66633 29.0299C2.66633 23.8271 6.79072 19.6046 11.8725 19.6046C16.9544 19.6046 21.0788 23.8422 21.0788 29.0299Z" fill="white"/>
<path d="M15.4667 8.44507C15.4667 13.1049 19.1639 16.8901 23.7154 16.8901C28.267 16.8901 31.9642 13.1049 31.9642 8.44507C31.9642 3.7852 28.267 0 23.7154 0C19.1639 0 15.4667 3.7852 15.4667 8.44507ZM29.2834 8.44507C29.2834 11.5969 26.7793 14.1606 23.7007 14.1606C20.6222 14.1606 18.1181 11.5969 18.1181 8.44507C18.1181 5.29325 20.6222 2.72957 23.7007 2.72957C26.7793 2.72957 29.2834 5.29325 29.2834 8.44507Z" fill="white"/>
</svg>
